<svg id="Capa_1" enable-background="new 0 0 512 512" height="512" viewBox="0 0 512 512" width="512" xmlns="http://www.w3.org/2000/svg" fill="#002e5d"><path d="m299.118 391.271c4.366-7.421 6.882-16.056 6.882-25.271 0-27.57-22.43-50-50-50s-50 22.43-50 50c0 9.215 2.516 17.85 6.882 25.271-23.138 9.962-39.382 32.981-39.382 59.729v45c0 8.284 6.716 15 15 15h135c8.284 0 15-6.716 15-15v-45c0-26.748-16.244-49.767-39.382-59.729z"/><path d="m126.618 226.271c4.366-7.421 6.882-16.055 6.882-25.271 0-27.57-22.43-50-50-50s-50 22.43-50 50c0 9.076 2.443 17.587 6.688 24.933-23.566 9.77-40.188 33.01-40.188 60.067v45c0 8.284 6.716 15 15 15h136c8.284 0 15-6.716 15-15v-45c0-26.748-16.244-49.767-39.382-59.729z"/><path d="m472.618 226.271c4.366-7.421 6.882-16.055 6.882-25.271 0-27.57-22.43-50-50-50s-50 22.43-50 50c0 9.076 2.443 17.587 6.688 24.933-23.566 9.77-40.188 33.01-40.188 60.067v45c0 8.284 6.716 15 15 15h136c8.284 0 15-6.716 15-15v-45c0-26.748-16.244-49.767-39.382-59.729z"/><path d="m299.118 76.271c4.366-7.421 6.882-16.056 6.882-25.271 0-27.57-22.43-50-50-50s-50 22.43-50 50c0 9.215 2.516 17.85 6.882 25.271-23.138 9.962-39.382 32.981-39.382 59.729v45c0 8.284 6.716 15 15 15h135c8.284 0 15-6.716 15-15v-45c0-26.748-16.244-49.767-39.382-59.729z"/><path d="m414 391c0 24.813-20.187 45-45 45h-1.694c1.467 9.197 1.194 14.236 1.194 30 43.042 0 75.5-34.632 75.5-75v-15h-30z"/><path d="m335.361 61h33.639c24.813 0 45 20.187 45 45v16.52c9.82-1.936 19.819-2.052 30-.179v-16.341c0-41.355-33.645-75-75-75h-35.532c2.439 9.441 3.208 19.599 1.893 30z"/><path d="m98.5 122.431v-16.431c0-24.813 20.187-45 45-45h33.139c-1.237-9.787-.701-19.957 1.893-30h-35.032c-41.355 0-75 33.645-75 75v16.431c10.007-1.907 19.984-1.908 30 0z"/><path d="m98.5 391v-15h-30v15c0 41.355 33.645 75 75 75 0-15.777-.272-20.81 1.194-30h-1.194c-24.813 0-45-20.187-45-45z"/></svg>