<svg id="Capa_1" enable-background="new 0 0 512 512" height="512" viewBox="0 0 512 512" width="512" xmlns="http://www.w3.org/2000/svg" fill="#002e5d">
  <g>
    <path d="m406 0c-57.9 0-105 48.1-105 106 0 44.7 27.9 84 70.201 98.699l34.799 46.2 34.799-46.199c42.301-14.7 71.201-54 71.201-98.7 0-57.9-48.1-106-106-106zm42.299 127.299-20.999 21-21.301-21-21.301 21-20.999-21 21-21.299-20.999-21.301 20.999-21 21.301 21 21.301-21 20.999 21-20.999 21.301z"/>
    <path d="m346 301v-30c0-49.501-40.499-90-90-90s-90 40.499-90 90v30c0 49.499 40.499 90 90 90s90-40.501 90-90z"/>
    <path d="m76 466v46h360v-46c0-41.4-33.6-75-75-75h-105-105c-41.4 0-75 33.6-75 75z"/>
    <path d="m71.201 204.699 34.799 46.2 34.799-46.199c42.301-14.7 70.201-54 70.201-98.7 0-57.9-47.1-106-105-106s-106 48.1-106 106c0 44.7 28.9 84 71.201 98.699zm.298-109.2 19.501 19.2 49.501-49.2 20.999 21-70.5 70.8-40.499-40.8z"/>
  </g>
</svg>