<?xml version="1.0" encoding="UTF-8"?>
<svg xmlns="http://www.w3.org/2000/svg" viewBox="0 0 512 512" width="512" height="512" fill="#002e5d"><g id="_SOLID" data-name="/ SOLID"><rect x="379.02944" y="35.99982" width="33.94113" height="16.00036" transform="translate(84.88376 292.91501) rotate(-45.00247)"/><path d="M224,336a8.00917,8.00917,0,0,0-8-8H168a8.00917,8.00917,0,0,0-8,8v8h64Z"/><circle cx="256" cy="464" r="16"/><path d="M179.69482,448a31.88422,31.88422,0,0,1,0,32h48.61036a31.88422,31.88422,0,0,1,0-32Z"/><path d="M456.84473,308.42236,459.05566,304H388.94434l2.21093,4.42236A7.99583,7.99583,0,0,1,392,312V424a7.99583,7.99583,0,0,1-.84473,3.57764L388.94434,432h70.11132l-2.21093-4.42236A7.99583,7.99583,0,0,1,456,424V312A7.99583,7.99583,0,0,1,456.84473,308.42236ZM440,360H408V344h32Z"/><circle cx="152" cy="464" r="16"/><circle cx="48" cy="464" r="16"/><path d="M104,342.42236A39.50555,39.50555,0,0,0,97.34375,320.438,55.46055,55.46055,0,0,1,88,289.57764V256H72v33.57764A55.46055,55.46055,0,0,1,62.65625,320.438,39.50555,39.50555,0,0,0,56,342.42236V432h48ZM88,376H72V344H88Z"/><path d="M75.69482,448a31.88422,31.88422,0,0,1,0,32h48.61036a31.88422,31.88422,0,0,1,0-32Z"/><path d="M219.71875,360h-55.4375l-10.9375,16.40674A7.97647,7.97647,0,0,0,152,380.84424V432h80V380.84424a7.97509,7.97509,0,0,0-1.34277-4.436ZM208,400H176V384h32Z"/><circle cx="464" cy="464" r="16"/><path d="M283.69482,448a31.88422,31.88422,0,0,1,0,32h48.61036a31.88422,31.88422,0,0,1,0-32Z"/><path d="M387.69482,448a31.88422,31.88422,0,0,1,0,32h48.61036a31.88422,31.88422,0,0,1,0-32Z"/><path d="M344,364.84424a7.97509,7.97509,0,0,0-1.34277-4.436L331.71875,344H320V328H304v16H292.28125l-10.9375,16.40674A7.97647,7.97647,0,0,0,280,364.84424V432h64ZM328,392H296V376h32Z"/><circle cx="360" cy="464" r="16"/><path d="M262.46,118.46094a59.53627,59.53627,0,0,0,13.2832-20.19068L232.958,87.574l15.49658,41.32471A60.09726,60.09726,0,0,0,262.46,118.46094Z"/><path d="M312,136h45.08789a42.9121,42.9121,0,0,0,35.34619-67.24512L374.40039,92.7998l-12.80078-9.5996L380.48242,58.023,346.9707,71.42773l-5.9414-14.85546,27.23144-10.89258A42.92262,42.92262,0,0,0,304,82.91162V128A8.00917,8.00917,0,0,0,312,136Zm40-32h16v16H352ZM320,72h16V88H320Zm0,32h16v16H320Z"/><path d="M267.74219,39.80762,235.76611,71.78345l43.83643,10.959A59.88656,59.88656,0,0,0,267.74219,39.80762Z"/><circle cx="256" cy="200" r="8"/><path d="M220.11816,136a60.33909,60.33909,0,0,0,13.34864-1.50281L216.99023,90.55933l-33.18652,33.18628A59.43239,59.43239,0,0,0,220.11816,136Z"/><path d="M150.34277,134.34326l40-40a31.63321,31.63321,0,0,0,1.58936-42.96142l17.7251-17.7251L198.34277,22.34326,178.48926,42.1969a31.6812,31.6812,0,0,0-32.832,7.45984A59.88789,59.88789,0,0,0,128,92.28418V96a8.00035,8.00035,0,0,1-2.34277,5.65674l-4,4a20.28409,20.28409,0,1,0,28.68554,28.68652Z"/><path d="M293.74219,232.3252,419.87207,195.228a8.01692,8.01692,0,0,0,5.66309-6.54395l3.93554-27.55273A7.9999,7.9999,0,0,0,421.55176,152H90.44824a7.9999,7.9999,0,0,0-7.91894,9.13135l3.93554,27.55322a8.01732,8.01732,0,0,0,5.66211,6.54346L218.25781,232.3252a8.00068,8.00068,0,0,1,5.332,5.145l12.35352,37.05958A7.98789,7.98789,0,0,0,243.53223,280h24.93554a7.98789,7.98789,0,0,0,7.58887-5.47021l12.35352-37.05958A8.00068,8.00068,0,0,1,293.74219,232.3252Zm14.78222-68.90137A63.62429,63.62429,0,0,1,320,200a64.58514,64.58514,0,0,1-.64844,9.13379l-15.83789-2.26758A48.71618,48.71618,0,0,0,304,200a47.709,47.709,0,0,0-8.59863-27.42383ZM208.48633,206.86621l-15.83789,2.26758A64.58514,64.58514,0,0,1,192,200a63.62381,63.62381,0,0,1,11.47656-36.57715l13.12305,9.1543A47.69405,47.69405,0,0,0,208,200,48.71618,48.71618,0,0,0,208.48633,206.86621ZM288,208h-9.37622a23.837,23.837,0,0,1-.969,2.3407l8.00244,8.00256-11.31446,11.31348-8.00195-8.00208A23.84967,23.84967,0,0,1,264,222.62378V232H248v-9.37622a23.84967,23.84967,0,0,1-2.34082-.96912l-8.00195,8.00208-11.31446-11.31348,8.00244-8.00256a23.837,23.837,0,0,1-.969-2.3407H224V192h9.37622a23.837,23.837,0,0,1,.969-2.3407l-8.00244-8.00256,11.31446-11.31348,8.00195,8.00208A23.84967,23.84967,0,0,1,248,177.37622V168h16v9.37622a23.84967,23.84967,0,0,1,2.34082.96912l8.00195-8.00208,11.31446,11.31348-8.00244,8.00256a23.837,23.837,0,0,1,.969,2.3407H288Z"/></g></svg>
