<svg height="448pt" viewBox="-16 0 448 448.11936" width="448pt" xmlns="http://www.w3.org/2000/svg" fill="#002e5d"><path d="m247.90625 185.023438.152344.105468v-97.058594h-72v52c15.542968-6.488281 33.265625-5.035156 47.546875 3.898438 14.277343 8.929688 23.335937 24.230469 24.300781 41.046875zm0 0"/><path d="m160.058594 188.070312c0 .800782.136718 1.503907.183594 2.265626l19.378906-12.921876c2.6875-1.792968 6.191406-1.792968 8.878906 0l19.558594 13.058594 19.5625-13.042968c.714844-.464844 1.5-.8125 2.328125-1.03125-5.671875-16.640626-22.558594-26.726563-39.898438-23.828126-17.339843 2.894532-30.035156 17.921876-29.992187 35.5zm0 0"/><path d="m252.746094 72.070312 24-24h-65.375l-24 24zm0 0"/><path d="m264.058594 185.128906 6.160156-4.113281 42.457031-113.015625-16.617187-16.617188-32 32zm0 0"/><path d="m119.78125 68.398438c2.820312 2.949218 2.972656 7.550781.347656 10.675781-2.621094 3.128906-7.179687 3.777343-10.574218 1.507812-3.371094-2.25-7.863282-1.828125-10.757813 1.007813l-.203125.21875-.140625.136718c-1.152344 1.242188-1.921875 2.792969-2.21875 4.460938-.5625 2.941406.332031 5.972656 2.402344 8.136719.191406.199219 1.4375 1.601562 3 3.464843l2.046875 2.398438c2.886718.140625 5.753906.574219 8.550781 1.296875 12.019531 3.140625 22.105469 11.300781 27.679687 22.398437l15.105469 32.167969c1.546875-1.988281 3.234375-3.859375 5.054688-5.597656v-70.601563c0-.175781.089843-.320312.097656-.496093.046875-.71875.191406-1.429688.433594-2.109375.085937-.257813.148437-.503906.261719-.753906.378906-.84375.902343-1.617188 1.542968-2.28125l3.714844-3.710938-.242188-.238281 23.570313-24c3.472656-3.558594 3.472656-9.242188 0-12.800781-3.375-3.324219-8.789063-3.324219-12.160156 0l-11.792969 11.992187c-2.277344 2.3125-5.726562 3.023437-8.730469 1.796875-3.003906-1.230469-4.96875-4.152344-4.972656-7.398438v-32c.128906-2.839843-1.3125-5.519531-3.753906-6.976562-2.4375-1.457031-5.480469-1.457031-7.921875 0-2.4375 1.457031-3.878906 4.136719-3.75 6.976562v32c0 3.25-1.964844 6.175782-4.976563 7.40625-3.007812 1.226563-6.460937.515626-8.734375-1.804687l-11.746094-12c-1.605468-1.65625-3.8125-2.589844-6.117187-2.59375-2.308594 0-4.515625.9375-6.121094 2.59375-3.449219 3.558594-3.472656 9.207031-.054687 12.800781zm0 0"/><path d="m216.058594 16.070312h72v16h-72zm0 0"/><path d="m86.117188 352.070312c-6.886719-.019531-13.492188 2.71875-18.34375 7.601563l-6.058594 6.054687c-3.125 3.125-8.1875 3.125-11.3125 0l-6.054688-6.054687c-7.417968-7.417969-18.578125-9.636719-28.273437-5.625-9.691407 4.015625-16.011719 13.476563-16.0156252 23.96875.0234374 18.523437 4.3359372 36.789063 12.6015622 53.367187l2.792969 5.601563c3.390625 6.816406 10.359375 11.113281 17.972656 11.085937 3.136719 0 6.226563-.722656 9.035157-2.117187l10.0625-5.042969c2.25-1.125 4.902343-1.125 7.152343 0l10.070313 5.042969c2.78125 1.382813 5.839844 2.105469 8.945312 2.117187 7.621094.023438 14.589844-4.285156 17.976563-11.109374l2.792969-5.601563c8.261718-16.570313 12.574218-34.828125 12.597656-53.34375-.015625-14.320313-11.621094-25.925781-25.941406-25.945313zm0 0"/><path d="m347.621094 206.726562-19.5625-13.054687-16 10.664063v243.734374h32c13.257812 0 24-10.742187 24-24v-225.046874l-11.558594 7.703124c-2.6875 1.792969-6.191406 1.792969-8.878906 0zm0 0"/><path d="m82.628906 163.96875 20.796875-16.089844 9.792969 12.65625-20.625 15.945313 1.714844 2.152343 17.75 11.839844 19.5625-13.042968c2.6875-1.792969 6.191406-1.792969 8.878906 0l4.214844 2.816406c.289062-1.914063.6875-3.816406 1.191406-5.6875l-20.390625-43.445313c-3.5-6.917969-9.804687-11.992187-17.304687-13.9375-7.503907-1.941406-15.476563-.566406-21.894532 3.777344-6.480468 4.429687-10.773437 11.398437-11.820312 19.175781-1.046875 7.78125 1.253906 15.636719 6.332031 21.621094zm0 0"/><path d="m260.5 206.726562c-2.6875 1.792969-6.191406 1.792969-8.878906 0l-19.5625-13.054687-19.558594 13.039063c-2.6875 1.792968-6.191406 1.792968-8.878906 0l-19.5625-13.039063-19.558594 13.039063c-2.6875 1.792968-6.191406 1.792968-8.878906 0l-19.5625-13.039063-19.558594 13.039063c-2.6875 1.792968-6.191406 1.792968-8.878906 0l-11.5625-7.6875v138.398437c18.742187 4.570313 31.949218 21.335937 32 40.625-.027344 21.007813-4.917969 41.71875-14.285156 60.519531l-2.792969 5.601563c-.695313 1.363281-1.472657 2.683593-2.328125 3.953125h187.40625v-243.769532l-16-10.679687zm0 0"/><path d="m409.324219 15.625c-6.582031-9.746094-17.578125-15.5742188-29.335938-15.5546875-15.027343.1914065-28.386719 9.6171875-33.601562 23.7148435l-58.558594 155.847656 16.230469 10.839844 19.5625-13.042968c2.6875-1.792969 6.191406-1.792969 8.878906 0l19.558594 13.042968 12-8 49.601562-131.953125c4.363282-11.640625 2.746094-24.679687-4.335937-34.894531zm-65.265625 146.925781-15.632813-48 15.203125-4.960937 15.621094 48zm23.441406-56-15.632812-48 15.199218-4.960937 15.625 48zm0 0"/></svg>